<svg width="1440" height="850" viewBox="0 0 1440 865" fill="none" xmlns="http://www.w3.org/2000/svg">
<line x1="1440" y1="93.4999" y2="93.4999" stroke="#1A1D1F"/>
<line x1="1440" y1="193.5" y2="193.5" stroke="#1A1D1F"/>
<line x1="1440" y1="293.5" y2="293.5" stroke="#1A1D1F"/>
<line x1="1440" y1="393.5" y2="393.5" stroke="#1A1D1F"/>
<line x1="1440" y1="493.5" y2="493.5" stroke="#1A1D1F"/>
<line x1="1440" y1="593.5" y2="593.5" stroke="#1A1D1F"/>
<line x1="1440" y1="693.5" y2="693.5" stroke="#1A1D1F"/>
<line x1="1440" y1="793.5" y2="793.5" stroke="#1A1D1F"/>
<line x1="60.5" y1="2.18557e-08" x2="60.5" y2="993" stroke="#1A1D1F"/>
<line x1="160.5" y1="2.18557e-08" x2="160.5" y2="993" stroke="#1A1D1F"/>
<line x1="260.5" y1="2.18557e-08" x2="260.5" y2="993" stroke="#1A1D1F"/>
<line x1="360.5" y1="2.18557e-08" x2="360.5" y2="993" stroke="#1A1D1F"/>
<line x1="460.5" y1="2.18557e-08" x2="460.5" y2="993" stroke="url(#paint0_linear_1312_27158)"/>
<line x1="560.5" y1="2.18557e-08" x2="560.5" y2="993" stroke="#1A1D1F"/>
<line x1="660.5" y1="2.18557e-08" x2="660.5" y2="993" stroke="#1A1D1F"/>
<line x1="760.5" y1="2.18557e-08" x2="760.5" y2="993" stroke="#1A1D1F"/>
<line x1="860.5" y1="2.18557e-08" x2="860.5" y2="993" stroke="#1A1D1F"/>
<line x1="960.5" y1="2.18557e-08" x2="960.5" y2="993" stroke="#1A1D1F"/>
<line x1="1060.5" y1="2.18557e-08" x2="1060.5" y2="993" stroke="#1A1D1F"/>
<line x1="1160.5" y1="2.18557e-08" x2="1160.5" y2="993" stroke="#1A1D1F"/>
<line x1="1260.5" y1="2.18557e-08" x2="1260.5" y2="993" stroke="#1A1D1F"/>
<line x1="1360.5" y1="2.18557e-08" x2="1360.5" y2="993" stroke="#1A1D1F"/>
<defs>
<linearGradient id="paint0_linear_1312_27158" x1="460" y1="496.5" x2="459" y2="496.5" gradientUnits="userSpaceOnUse">
<stop stopColor="#1A1D1F"/>
<stop stopColor="#1A1D1F" stopOpacity="0"/>
</linearGradient>
</defs>
</svg>
