<svg xmlns="http://www.w3.org/2000/svg" x="0px" y="0px" width="74" height="74" viewBox="0,0,256,256"
style="fill:#000000;">
<defs><linearGradient x1="32" y1="38.5" x2="32" y2="45.502" gradientUnits="userSpaceOnUse" id="color-1_43663_gr1"><stop offset="0" stop-color="#6dc7ff"></stop><stop offset="1" stop-color="#e6abff"></stop></linearGradient><linearGradient x1="32" y1="5.333" x2="32" y2="58.718" gradientUnits="userSpaceOnUse" id="color-2_43663_gr2"><stop offset="0" stop-color="#1a6dff"></stop><stop offset="1" stop-color="#c822ff"></stop></linearGradient><linearGradient x1="32" y1="5.333" x2="32" y2="58.718" gradientUnits="userSpaceOnUse" id="color-3_43663_gr3"><stop offset="0" stop-color="#1a6dff"></stop><stop offset="1" stop-color="#c822ff"></stop></linearGradient><linearGradient x1="26.409" y1="5.333" x2="26.409" y2="58.718" gradientUnits="userSpaceOnUse" id="color-4_43663_gr4"><stop offset="0" stop-color="#1a6dff"></stop><stop offset="1" stop-color="#c822ff"></stop></linearGradient><linearGradient x1="32" y1="5.333" x2="32" y2="58.718" gradientUnits="userSpaceOnUse" id="color-5_43663_gr5"><stop offset="0" stop-color="#1a6dff"></stop><stop offset="1" stop-color="#c822ff"></stop></linearGradient></defs><g fill="none" fill-rule="nonzero" stroke="none" stroke-width="1" stroke-linecap="butt" stroke-linejoin="miter" stroke-miterlimit="10" stroke-dasharray="" stroke-dashoffset="0" font-family="none" font-weight="none" font-size="none" text-anchor="none" style="mix-blend-mode: normal"><g transform="scale(4,4)"><path d="M27.107,39c-0.615,0 -1.114,0.553 -0.996,1.157c0.54,2.76 2.971,4.843 5.889,4.843c2.918,0 5.349,-2.083 5.888,-4.843c0.119,-0.604 -0.38,-1.157 -0.995,-1.157z" fill="url(#color-1_43663_gr1)"></path><path d="M32,12c-11.028,0 -20,8.972 -20,20c0,11.028 8.972,20 20,20c11.028,0 20,-8.972 20,-20c0,-11.028 -8.972,-20 -20,-20zM32,50c-9.925,0 -18,-8.075 -18,-18c0,-9.925 8.075,-18 18,-18c9.925,0 18,8.075 18,18c0,9.925 -8.075,18 -18,18z" fill="url(#color-2_43663_gr2)"></path><path d="M36,27c-1.103,0 -2,1 -2,2h-4c0,-1 -0.897,-2 -2,-2h-10c-1.103,0 -2,0.897 -2,2v2c0,3.309 2.691,6 6,6h2c3.309,0 6,-2.691 6,-6h4c0,3.309 2.691,6 6,6h2c3.309,0 6,-2.691 6,-6v-2c0,-1.103 -0.897,-2 -2,-2zM28,31c0,2.206 -1.794,4 -4,4h-2c-2.206,0 -4,-1.794 -4,-4v-2h1.586l-0.293,0.293c-0.391,0.391 -0.391,1.023 0,1.414c0.195,0.195 0.451,0.293 0.707,0.293c0.256,0 0.512,-0.098 0.707,-0.293l1.707,-1.707h2.172l-2.293,2.293c-0.391,0.391 -0.391,1.023 0,1.414c0.195,0.195 0.451,0.293 0.707,0.293c0.256,0 0.512,-0.098 0.707,-0.293l3.707,-3.707h0.586zM46,31c0,2.206 -1.794,4 -4,4h-2c-2.206,0 -4,-1.794 -4,-4v-2h1.586l-0.293,0.293c-0.391,0.391 -0.391,1.023 0,1.414c0.195,0.195 0.451,0.293 0.707,0.293c0.256,0 0.512,-0.098 0.707,-0.293l1.707,-1.707h2.172l-2.293,2.293c-0.391,0.391 -0.391,1.023 0,1.414c0.195,0.195 0.451,0.293 0.707,0.293c0.256,0 0.512,-0.098 0.707,-0.293l3.707,-3.707h0.586z" fill="url(#color-3_43663_gr3)"></path><path d="M20.819,23c0.274,0 0.548,-0.112 0.745,-0.333c2.656,-2.966 6.459,-4.667 10.435,-4.667c0.553,0 1,-0.447 1,-1c0,-0.553 -0.447,-1 -1,-1c-4.544,0 -8.891,1.943 -11.925,5.333c-0.368,0.411 -0.333,1.044 0.078,1.412c0.191,0.171 0.429,0.255 0.667,0.255z" fill="url(#color-4_43663_gr4)"></path><path d="M58,32c0,-1.912 -1.209,-3.766 -3.345,-5.167c0.229,-1.288 0.093,-2.596 -0.403,-3.824c-0.529,-1.312 -1.445,-2.426 -2.618,-3.203c0.566,-2.548 0.118,-4.823 -1.249,-6.19c-1.367,-1.367 -3.641,-1.815 -6.19,-1.249c-0.777,-1.173 -1.892,-2.089 -3.204,-2.618c-1.228,-0.497 -2.534,-0.634 -3.823,-0.403c-1.402,-2.137 -3.256,-3.346 -5.168,-3.346c-1.912,0 -3.766,1.209 -5.167,3.345c-1.289,-0.23 -2.597,-0.094 -3.824,0.403c-1.31,0.529 -2.43,1.446 -3.208,2.617c-2.546,-0.567 -4.82,-0.116 -6.186,1.25c-1.367,1.367 -1.815,3.643 -1.249,6.19c-1.173,0.777 -2.089,1.892 -2.618,3.204c-0.496,1.228 -0.633,2.535 -0.403,3.823c-2.136,1.402 -3.345,3.256 -3.345,5.168c0,1.912 1.209,3.766 3.345,5.167c-0.229,1.288 -0.093,2.596 0.403,3.824c0.529,1.312 1.445,2.426 2.618,3.203c-0.566,2.548 -0.118,4.823 1.249,6.19c1.368,1.368 3.647,1.817 6.19,1.248c0.778,1.174 1.893,2.09 3.204,2.619c1.228,0.497 2.534,0.634 3.823,0.403c1.402,2.137 3.256,3.346 5.168,3.346c1.912,0 3.766,-1.209 5.167,-3.345c1.289,0.23 2.597,0.094 3.824,-0.403c1.311,-0.529 2.425,-1.445 3.203,-2.619c2.546,0.569 4.823,0.12 6.19,-1.248c1.367,-1.367 1.815,-3.643 1.249,-6.19c1.173,-0.777 2.089,-1.892 2.618,-3.204c0.496,-1.228 0.633,-2.535 0.403,-3.823c2.137,-1.402 3.346,-3.256 3.346,-5.168zM53.024,35.82c-0.403,0.229 -0.597,0.705 -0.467,1.15c0.319,1.092 0.264,2.223 -0.159,3.271c-0.451,1.116 -1.294,2.032 -2.374,2.58c-0.431,0.218 -0.644,0.713 -0.507,1.176c0.634,2.139 0.429,3.997 -0.547,4.974c-0.977,0.977 -2.834,1.182 -4.974,0.546c-0.46,-0.135 -0.958,0.076 -1.176,0.507c-0.548,1.08 -1.464,1.924 -2.579,2.375c-1.049,0.423 -2.18,0.479 -3.271,0.159c-0.447,-0.133 -0.922,0.063 -1.15,0.467c-1.056,1.863 -2.484,2.975 -3.82,2.975c-1.336,0 -2.764,-1.112 -3.82,-2.976c-0.182,-0.319 -0.518,-0.507 -0.87,-0.507c-0.093,0 -0.188,0.013 -0.28,0.04c-1.093,0.319 -2.224,0.264 -3.271,-0.159c-1.116,-0.451 -2.032,-1.295 -2.58,-2.375c-0.219,-0.431 -0.717,-0.641 -1.176,-0.507c-2.14,0.636 -3.997,0.431 -4.974,-0.546c-0.976,-0.977 -1.181,-2.835 -0.547,-4.974c0.137,-0.463 -0.076,-0.958 -0.507,-1.176c-1.08,-0.548 -1.923,-1.464 -2.374,-2.579c-0.423,-1.049 -0.479,-2.18 -0.159,-3.271c0.13,-0.445 -0.063,-0.921 -0.467,-1.15c-1.863,-1.056 -2.975,-2.484 -2.975,-3.82c0,-1.336 1.112,-2.764 2.976,-3.82c0.403,-0.229 0.597,-0.705 0.467,-1.15c-0.319,-1.092 -0.264,-2.223 0.159,-3.271c0.451,-1.116 1.294,-2.032 2.374,-2.58c0.431,-0.218 0.644,-0.713 0.507,-1.176c-0.634,-2.139 -0.429,-3.997 0.547,-4.974c0.976,-0.976 2.836,-1.181 4.974,-0.547c0.468,0.136 0.962,-0.079 1.179,-0.512l0.056,-0.119c0.552,-1.017 1.447,-1.815 2.521,-2.25c1.049,-0.423 2.18,-0.479 3.271,-0.159c0.443,0.131 0.921,-0.063 1.15,-0.467c1.055,-1.863 2.483,-2.975 3.819,-2.975c1.336,0 2.764,1.112 3.82,2.976c0.229,0.403 0.704,0.598 1.15,0.467c1.091,-0.321 2.223,-0.264 3.271,0.159c1.116,0.451 2.032,1.294 2.58,2.374c0.218,0.43 0.707,0.642 1.176,0.507c2.137,-0.633 3.998,-0.43 4.974,0.547c0.976,0.977 1.181,2.835 0.547,4.974c-0.137,0.463 0.076,0.958 0.507,1.176c1.08,0.548 1.923,1.464 2.374,2.579c0.423,1.049 0.479,2.18 0.159,3.271c-0.13,0.445 0.063,0.921 0.467,1.15c1.863,1.056 2.975,2.484 2.975,3.82c0,1.336 -1.112,2.764 -2.976,3.82z" fill="url(#color-5_43663_gr5)"></path></g></g>
</svg>